<svg xmlns="http://www.w3.org/2000/svg" width="50" height="50" viewBox="0 0 50 50">
  <g fill="none" transform="translate(0 -.267)">
    <ellipse cx="24.678" cy="25.103" fill="#B44922" fill-opacity=".7" rx="24.678" ry="24.723"/>
    <path fill="#F8F8F8" d="M24.7346976,10.5894148 C16.7068912,10.5894148 10.1987344,17.1071958 10.1987344,25.1477361 C10.1987344,31.9883745 14.911152,37.7237282 21.2608272,39.2839484 C21.258128,37.4842885 21.2531152,34.0606867 21.2515728,33.9355601 C21.225352,33.9185676 18.4960752,35.5197242 17.1036736,32.7205966 C16.935552,32.3745676 16.5977664,31.2179193 15.7513744,30.5702734 C15.7212976,30.5451709 15.09624,30.2250168 15.0387856,29.911428 C15.0322304,29.8677882 15.0792736,29.7758742 15.140584,29.7530888 C15.2045936,29.7291449 16.2333744,29.3062634 17.3801488,30.7629838 C17.7256464,31.2507457 18.5061008,33.1214651 21.2376912,31.9652029 C21.310184,31.6771029 21.3633968,31.2067197 21.9537504,30.6718422 C17.886056,30.1856251 16.399568,28.7906956 15.8234816,25.3076201 C15.4633312,22.9329187 16.1550976,20.9590857 17.1946752,19.9851067 C17.0373504,19.7777211 16.5183328,18.0425555 17.325008,16.2073658 C18.1991632,16.0320342 19.8021024,16.6607565 21.2110848,17.677603 C23.1980816,16.9581252 26.9295328,17.1446565 28.26448,17.677603 C28.8991776,17.151608 31.1649632,15.9239001 32.1370608,16.2100692 C32.4227904,16.9388156 32.8353824,18.7041042 32.2654656,19.9908996 C33.531776,21.2962323 33.888456,22.9819652 33.6601808,25.0523464 C33.3802352,28.1897792 31.7950336,30.3022554 27.485568,30.6718422 C28.2035552,31.1793 28.8629312,31.8759923 28.8629312,33.057357 C28.8629312,34.3267737 28.86216,37.3664996 28.8613888,39.1066857 C34.8786768,37.325177 39.2710464,31.7520243 39.2710464,25.1473499 C39.2710464,17.1071958 32.7628896,10.5894148 24.7346976,10.5894148 Z"/>
  </g>
</svg>
