<svg xmlns="http://www.w3.org/2000/svg" width="51" height="51" viewBox="0 0 51 51">
  <g fill="none" transform="translate(.977 .362)" opacity=".7">
    <ellipse cx="24.678" cy="25.103" fill="#B44922" rx="24.678" ry="24.723"/>
    <path fill="#F8F8F8" d="M33.1060736,13.7619911 L15.7290096,13.7619911 C14.0770992,13.7619911 12.7244144,15.1121222 12.7244144,16.7630977 L12.7244144,34.1742274 C12.7244144,35.8244306 14.0770992,37.1737893 15.7290096,37.1737893 L33.1060736,37.1737893 C34.7587552,37.1737893 36.109512,35.8248168 36.109512,34.1742274 L36.109512,16.7627115 C36.1098976,15.1121222 34.7591408,13.7619911 33.1060736,13.7619911 Z M29.4316912,17.4358461 C29.4316912,16.9480842 29.830016,16.5479882 30.319728,16.5479882 L32.4416848,16.5479882 C32.9290832,16.5479882 33.3289504,16.9480842 33.3289504,17.4358461 L33.3289504,19.557591 C33.3289504,20.0461253 32.9290832,20.4446765 32.4416848,20.4446765 L30.319728,20.4446765 C29.830016,20.4446765 29.4316912,20.0461253 29.4316912,19.557591 L29.4316912,17.4358461 Z M24.4173488,20.4508556 C27.1840288,20.4508556 29.427064,22.6942513 29.427064,25.4620973 C29.427064,28.2295571 27.1840288,30.4729528 24.4173488,30.4729528 C21.6498976,30.4729528 19.4068624,28.2295571 19.4068624,25.4620973 C19.4068624,22.6942513 21.6498976,20.4508556 24.4173488,20.4508556 Z M33.8992528,34.0104816 C33.8992528,34.5221874 33.4820336,34.9381174 32.9699568,34.9381174 L15.8901904,34.9381174 C15.3788848,34.9381174 14.9608944,34.5221874 14.9608944,34.0104816 L14.9608944,23.7867916 L17.3701232,23.7867916 C17.2444176,24.3228276 17.1699968,24.8789457 17.1699968,25.4532149 C17.1699968,29.4607407 20.4186768,32.709397 24.425832,32.709397 C28.4329872,32.709397 31.6805104,29.4607407 31.6805104,25.4532149 C31.6805104,24.8777871 31.5991488,24.3232138 31.4722864,23.7867916 L33.8988672,23.7867916 L33.8988672,34.0104816 L33.8992528,34.0104816 Z"/>
  </g>
</svg>
