<svg xmlns="http://www.w3.org/2000/svg" width="50" height="51" viewBox="0 0 50 51">
  <g fill="none" transform="translate(-.011 .25)">
    <ellipse cx="24.678" cy="25.103" fill="#B44922" fill-opacity=".7" rx="24.678" ry="24.723"/>
    <path fill="#F8F8F8" d="M14.965136,34.0861754 L19.4326976,34.0861754 L19.4326976,18.4241142 L14.965136,18.4241142 L14.965136,34.0861754 Z M32.0213808,19.3169927 C30.358288,18.381633 27.9035584,18.3032358 26.1348112,19.1111518 L26.1348112,18.4245004 L21.6672496,18.4245004 L21.6672496,34.0865616 L26.1348112,34.0865616 L26.1348112,24.0690988 L27.9760512,23.181627 C28.4279744,22.9642003 29.4170384,22.98351 29.8361856,23.2198602 C30.151992,23.397509 30.6023728,24.1289587 30.6023728,24.5777151 L30.6023728,34.0861754 L35.0707056,34.0861754 L35.0707056,24.5777151 C35.0710912,22.5208506 33.7882,20.307578 32.0213808,19.3169927 Z M17.1993024,11.1524844 C15.65536,11.1524844 14.4067872,12.4045224 14.4067872,13.949681 C14.4067872,15.4944534 15.65536,16.7461052 17.1993024,16.7461052 C18.744016,16.7461052 19.9918176,15.4944534 19.9918176,13.949681 C19.9918176,12.4045224 18.7436304,11.1524844 17.1993024,11.1524844 Z"/>
  </g>
</svg>
