<svg xmlns="http://www.w3.org/2000/svg" width="46" height="46" viewBox="0 0 46 46">
  <path fill="#000000" d="M30,46 L4,46 C1.791,46 0,44.209 0,42 L0,4 C0,1.791 1.791,0 4,0 L22.973,0 L22.98,0 L23,0 L23,0 C23.32,0 23.593,0.161 23.776,0.395 L33.605,10.224 C33.84,10.407 34,10.68 34,11 L34,11 L34,11.021 L34,11.026 L34,42 C34,44.209 32.209,46 30,46 Z M24,3.381 L24,10 L30.619,10 L24,3.381 Z M32,12 L23,12 C22.447,12 22,11.552 22,11 L22,2 L4,2 C2.896,2 2,2.896 2,4 L2,42 C2,43.104 2.896,44 4,44 L30,44 C31.104,44 32,43.104 32,42 L32,12 Z M26,38 L8,38 C7.447,38 7,37.553 7,37 C7,36.448 7.447,36 8,36 L26,36 C26.553,36 27,36.448 27,37 C27,37.553 26.553,38 26,38 Z M26,30 L8,30 C7.447,30 7,29.553 7,29 C7,28.448 7.447,28 8,28 L26,28 C26.553,28 27,28.448 27,29 C27,29.553 26.553,30 26,30 Z M26,22 L8,22 C7.447,22 7,21.553 7,21 C7,20.448 7.447,20 8,20 L26,20 C26.553,20 27,20.448 27,21 C27,21.553 26.553,22 26,22 Z" transform="translate(6)"/>
</svg>
