<svg xmlns="http://www.w3.org/2000/svg" width="466" height="161" viewBox="0 0 466 161">
  <g fill="none" fill-rule="evenodd">
    <path fill="#181A27" d="M0,0 L466,0 L466,161 L0,161 L0,0 Z M9,10 L9,151 L458,151 L458,10 L9,10 Z"/>
    <path fill="#F8F8F8" d="M84,50 L93.2109375,50 C94.5703193,50 95.9765552,50.0468745 97.4296875,50.140625 C98.8828198,50.2343755 100.300774,50.4335922 101.683594,50.7382812 C103.066413,51.0429703 104.3789,51.4941376 105.621094,52.0917969 C106.863287,52.6894561 107.947261,53.4921825 108.873047,54.5 C109.798833,55.5078175 110.537107,56.7558519 111.087891,58.2441406 C111.638675,59.7324293 111.914062,61.5195208 111.914062,63.6054688 L111.914062,66.5234375 C111.914062,68.1171955 111.685549,69.5820246 111.228516,70.9179688 C110.771482,72.2539129 110.167973,73.4316355 109.417969,74.4511719 C108.667965,75.4707082 107.812505,76.3144498 106.851562,76.9824219 C105.89062,77.650394 104.906255,78.1015613 103.898438,78.3359375 L103.898438,78.6171875 C106.875015,79.1562527 109.119133,80.5683479 110.630859,82.8535156 C112.142586,85.1386833 112.898438,88.0624822 112.898438,91.625 L112.898438,94.6835938 C112.898438,96.8632921 112.658206,98.7558513 112.177734,100.361328 C111.697263,101.966805 111.023442,103.337885 110.15625,104.474609 C109.289058,105.611334 108.257818,106.542965 107.0625,107.269531 C105.867182,107.996097 104.554695,108.564451 103.125,108.974609 C101.695305,109.384768 100.171883,109.666015 98.5546875,109.818359 C96.9374919,109.970704 95.2734461,110.046875 93.5625,110.046875 L84,110.046875 L84,50 Z M94.6875,75.6992188 C95.9062561,75.6992188 97.0195262,75.5527358 98.0273438,75.2597656 C99.0351613,74.9667954 99.8964808,74.5097687 100.611328,73.8886719 C101.326175,73.267575 101.876951,72.4589894 102.263672,71.4628906 C102.650393,70.4667919 102.84375,69.265632 102.84375,67.859375 L102.84375,65.3984375 C102.84375,63.9921805 102.703126,62.7500054 102.421875,61.671875 C102.140624,60.5937446 101.677738,59.6796913 101.033203,58.9296875 C100.388669,58.1796837 99.5449271,57.6113301 98.5019531,57.2246094 C97.4589792,56.8378887 96.1875075,56.6445312 94.6875,56.6445312 L92.9296875,56.6445312 L92.9296875,75.6992188 L94.6875,75.6992188 Z M95.53125,103.71875 C96.7500061,103.71875 97.8574169,103.560548 98.8535156,103.244141 C99.8496144,102.927733 100.705075,102.43555 101.419922,101.767578 C102.134769,101.099606 102.685545,100.250005 103.072266,99.21875 C103.458986,98.1874948 103.652344,96.968757 103.652344,95.5625 L103.652344,90.8867188 C103.652344,89.4804617 103.51172,88.2324273 103.230469,87.1425781 C102.949217,86.0527289 102.486331,85.1386756 101.841797,84.4003906 C101.197262,83.6621057 100.35938,83.0996113 99.328125,82.7128906 C98.2968698,82.3261699 97.0312575,82.1328125 95.53125,82.1328125 L92.9296875,82.1328125 L92.9296875,103.71875 L95.53125,103.71875 Z M120.808594,50 L143.0625,50 L143.0625,57.171875 L129.914062,57.171875 L129.914062,75.1367188 L140.074219,75.1367188 L140.074219,82.3085938 L129.914062,82.3085938 L129.914062,102.875 L143.414062,102.875 L143.414062,110.046875 L120.808594,110.046875 L120.808594,50 Z M149.988281,50 L157.371094,50 L171.925781,90.1835938 L172.136719,90.1835938 C172.066406,89.2460891 171.972657,88.2031307 171.855469,87.0546875 C171.738281,85.9062443 171.632813,84.5996167 171.539062,83.1347656 C171.445312,81.6699146 171.363282,80.011728 171.292969,78.1601562 C171.222656,76.3085845 171.1875,74.2226679 171.1875,71.9023438 L171.1875,50 L179.34375,50 L179.34375,110.046875 L171.890625,110.046875 L157.40625,70.9179688 L157.125,70.9179688 C157.195313,71.9726615 157.289062,73.1152282 157.40625,74.3457031 C157.523438,75.576178 157.628906,77.0234292 157.722656,78.6875 C157.816407,80.3515708 157.898437,82.2910046 157.96875,84.5058594 C158.039063,86.7207142 158.074219,89.3515473 158.074219,92.3984375 L158.074219,110.046875 L149.988281,110.046875 L149.988281,50 Z M200.542969,50 L209.859375,50 L216.46875,97.5664062 L216.855469,97.5664062 L223.5,50 L232.78125,50 L221.847656,110.046875 L211.441406,110.046875 L200.542969,50 Z M238.582031,50 L260.835938,50 L260.835938,57.171875 L247.6875,57.171875 L247.6875,75.1367188 L257.847656,75.1367188 L257.847656,82.3085938 L247.6875,82.3085938 L247.6875,102.875 L261.1875,102.875 L261.1875,110.046875 L238.582031,110.046875 L238.582031,50 Z M267.761719,50 L276.867188,50 L276.867188,102.875 L289.277344,102.875 L289.277344,110.046875 L267.761719,110.046875 L267.761719,50 Z M295.042969,50 L304.148438,50 L304.148438,102.875 L316.558594,102.875 L316.558594,110.046875 L295.042969,110.046875 L295.042969,50 Z M322.324219,50 L344.578125,50 L344.578125,57.171875 L331.429688,57.171875 L331.429688,75.1367188 L341.589844,75.1367188 L341.589844,82.3085938 L331.429688,82.3085938 L331.429688,102.875 L344.929688,102.875 L344.929688,110.046875 L322.324219,110.046875 L322.324219,50 Z M351.503906,50 L360.609375,50 L360.609375,76.2265625 L360.890625,76.2265625 L371.296875,50 L380.367188,50 L368.765625,78.1601562 L381.667969,110.046875 L371.929688,110.046875 L360.890625,81.4648438 L360.609375,81.4648438 L360.609375,110.046875 L351.503906,110.046875 L351.503906,50 Z"/>
  </g>
</svg>
