<svg xmlns="http://www.w3.org/2000/svg" width="413" height="141" viewBox="0 0 413 141">
  <g fill="none" fill-rule="evenodd">
    <path fill="#181A27" d="M0,0 L413,0 L413,141 L0,141 L0,0 Z M11,11 L11,130.981366 L401.225322,130.981366 L401.225322,11 L11,11 Z"/>
    <path fill="#F8F8F8" d="M60,42 L69.2109375,42 C70.5703193,42 71.9765552,42.0468745 73.4296875,42.140625 C74.8828198,42.2343755 76.300774,42.4335922 77.683594,42.7382812 C79.066413,43.0429703 80.3789,43.4941376 81.621094,44.0917969 C82.863287,44.6894561 83.947261,45.4921825 84.873047,46.5 C85.798833,47.5078175 86.537107,48.7558519 87.087891,50.2441406 C87.638675,51.7324293 87.914062,53.5195208 87.914062,55.6054688 L87.914062,58.5234375 C87.914062,60.1171955 87.685549,61.5820246 87.228516,62.9179688 C86.771482,64.2539129 86.167973,65.4316355 85.417969,66.4511719 C84.667965,67.4707082 83.812505,68.3144498 82.851562,68.9824219 C81.89062,69.650394 80.906255,70.1015613 79.898438,70.3359375 L79.898438,70.6171875 C82.875015,71.1562527 85.119133,72.5683479 86.630859,74.8535156 C88.142586,77.1386833 88.898438,80.0624822 88.898438,83.625 L88.898438,86.6835938 C88.898438,88.8632921 88.658206,90.7558513 88.177734,92.361328 C87.697263,93.966805 87.023442,95.337885 86.15625,96.474609 C85.289058,97.611334 84.257818,98.542965 83.0625,99.269531 C81.867182,99.996097 80.554695,100.564451 79.125,100.974609 C77.695305,101.384768 76.171883,101.666015 74.5546875,101.818359 C72.9374919,101.970704 71.2734461,102.046875 69.5625,102.046875 L60,102.046875 L60,42 Z M70.6875,67.6992188 C71.9062561,67.6992188 73.0195262,67.5527358 74.0273438,67.2597656 C75.0351613,66.9667954 75.8964808,66.5097687 76.611328,65.8886719 C77.326175,65.267575 77.876951,64.4589894 78.263672,63.4628906 C78.650393,62.4667919 78.84375,61.265632 78.84375,59.859375 L78.84375,57.3984375 C78.84375,55.9921805 78.703126,54.7500054 78.421875,53.671875 C78.140624,52.5937446 77.677738,51.6796913 77.033203,50.9296875 C76.388669,50.1796837 75.5449271,49.6113301 74.5019531,49.2246094 C73.4589792,48.8378887 72.1875075,48.6445312 70.6875,48.6445312 L68.9296875,48.6445312 L68.9296875,67.6992188 L70.6875,67.6992188 Z M71.53125,95.71875 C72.7500061,95.71875 73.8574169,95.560548 74.8535156,95.244141 C75.8496144,94.927733 76.705075,94.43555 77.419922,93.767578 C78.134769,93.099606 78.685545,92.250005 79.072266,91.21875 C79.458986,90.1874948 79.652344,88.968757 79.652344,87.5625 L79.652344,82.8867188 C79.652344,81.4804617 79.51172,80.2324273 79.230469,79.1425781 C78.949217,78.0527289 78.486331,77.1386756 77.841797,76.4003906 C77.197262,75.6621057 76.35938,75.0996113 75.328125,74.7128906 C74.2968698,74.3261699 73.0312575,74.1328125 71.53125,74.1328125 L68.9296875,74.1328125 L68.9296875,95.71875 L71.53125,95.71875 Z M96.808594,42 L119.0625,42 L119.0625,49.171875 L105.914062,49.171875 L105.914062,67.1367188 L116.074219,67.1367188 L116.074219,74.3085938 L105.914062,74.3085938 L105.914062,94.875 L119.414062,94.875 L119.414062,102.046875 L96.808594,102.046875 L96.808594,42 Z M125.988281,42 L133.371094,42 L147.925781,82.1835938 L148.136719,82.1835938 C148.066406,81.2460891 147.972657,80.2031307 147.855469,79.0546875 C147.738281,77.9062443 147.632813,76.5996167 147.539062,75.1347656 C147.445312,73.6699146 147.363282,72.011728 147.292969,70.1601562 C147.222656,68.3085845 147.1875,66.2226679 147.1875,63.9023438 L147.1875,42 L155.34375,42 L155.34375,102.046875 L147.890625,102.046875 L133.40625,62.9179688 L133.125,62.9179688 C133.195313,63.9726615 133.289062,65.1152282 133.40625,66.3457031 C133.523438,67.576178 133.628906,69.0234292 133.722656,70.6875 C133.816407,72.3515708 133.898437,74.2910046 133.96875,76.5058594 C134.039063,78.7207142 134.074219,81.3515473 134.074219,84.3984375 L134.074219,102.046875 L125.988281,102.046875 L125.988281,42 Z M176.542969,42 L185.859375,42 L192.46875,89.5664062 L192.855469,89.5664062 L199.5,42 L208.78125,42 L197.847656,102.046875 L187.441406,102.046875 L176.542969,42 Z M214.582031,42 L236.835938,42 L236.835938,49.171875 L223.6875,49.171875 L223.6875,67.1367188 L233.847656,67.1367188 L233.847656,74.3085938 L223.6875,74.3085938 L223.6875,94.875 L237.1875,94.875 L237.1875,102.046875 L214.582031,102.046875 L214.582031,42 Z M243.761719,42 L252.867188,42 L252.867188,94.875 L265.277344,94.875 L265.277344,102.046875 L243.761719,102.046875 L243.761719,42 Z M271.042969,42 L280.148438,42 L280.148438,94.875 L292.558594,94.875 L292.558594,102.046875 L271.042969,102.046875 L271.042969,42 Z M298.324219,42 L320.578125,42 L320.578125,49.171875 L307.429688,49.171875 L307.429688,67.1367188 L317.589844,67.1367188 L317.589844,74.3085938 L307.429688,74.3085938 L307.429688,94.875 L320.929688,94.875 L320.929688,102.046875 L298.324219,102.046875 L298.324219,42 Z M327.503906,42 L336.609375,42 L336.609375,68.2265625 L336.890625,68.2265625 L347.296875,42 L356.367188,42 L344.765625,70.1601562 L357.667969,102.046875 L347.929688,102.046875 L336.890625,73.4648438 L336.609375,73.4648438 L336.609375,102.046875 L327.503906,102.046875 L327.503906,42 Z"/>
  </g>
</svg>
